<?xml version="1.0" encoding="UTF-8" standalone="no"?>
<!DOCTYPE svg PUBLIC "-//W3C//DTD SVG 1.1//EN" "http://www.w3.org/Graphics/SVG/1.1/DTD/svg11.dtd">
<svg version="1.1" xmlns="http://www.w3.org/2000/svg" xmlns:xlink="http://www.w3.org/1999/xlink" preserveAspectRatio="xMidYMid meet" viewBox="0 0 136 136" width="16" height="16"><defs><path d="M84.86 12.67C81.83 12.52 78.82 12.1 75.78 12C79.03 13.58 82.44 14.83 85.54 16.73C91.91 20.33 97.31 25.42 102.11 30.88C114.72 38.24 123.31 52.31 123.26 67.05C123.64 80.4 117.11 93.68 106.47 101.64C99.84 106.71 91.65 109.67 83.34 110.1C68.52 110.21 53.69 110.05 38.87 110.19C38.78 90.36 38.95 70.53 38.79 50.7C44.89 50.21 51.04 50.39 57.14 50.59C64.84 50.91 71.66 57.19 72.84 64.8C73.41 69.97 72.96 75.2 73.08 80.4C77.33 80.32 81.62 80.65 85.82 79.85C85.59 71.82 86.9 63.28 83.32 55.77C78.98 45.37 68.33 38.17 57.14 37.73C46.81 37.62 36.48 37.84 26.15 37.62C25.96 66.07 26.08 94.53 26.09 122.98C41.68 122.92 57.27 122.97 72.87 122.95C79.1 122.89 85.41 123.32 91.53 121.9C103.93 119.53 115.5 112.72 123.44 102.82C131.7 92.93 136.27 79.97 135.99 67.06C135.95 52.68 129.83 38.48 119.62 28.43C110.42 19.22 97.83 13.54 84.86 12.67Z" id="b4TvWvgT54"></path><path d="M12.72 25.39C27.22 25.33 41.73 25.37 56.23 25.37C74.32 25.48 91.26 38.95 95.76 56.5C97.06 60.9 97.44 65.52 97.08 70.09C96.21 78.33 88.43 85.19 80.18 84.93C74.48 84.94 68.78 84.95 63.08 84.91C63.03 75.69 63.15 66.45 63.01 57.22C61.74 57.01 51.6 55.33 50.33 55.12C50.09 69.32 50.26 83.53 50.23 97.73C60.46 97.79 70.68 97.78 80.91 97.73C91.93 97.53 102.5 90.65 107.12 80.59C110.65 73.39 110.51 65.04 109 57.33C106.6 44.63 99.59 32.83 89.48 24.79C80.38 17.31 68.76 12.96 57.01 12.57C38.03 12.54 19.05 12.56 0.06 12.55C-0.02 49.35 0.1 86.15 0 122.95C6.83 123 13.66 123.06 20.49 122.89C20.53 118.67 20.42 114.46 20.54 110.25C17.96 110.12 15.37 110.13 12.8 110.18C12.81 81.92 12.95 53.64 12.72 25.39Z" id="a2eIkyih3d"></path></defs><g><g><g><use xlink:href="#b4TvWvgT54" opacity="1" fill="#ff8a4c" fill-opacity="1"></use><g><use xlink:href="#b4TvWvgT54" opacity="1" fill-opacity="0" stroke="#000000" stroke-width="1" stroke-opacity="0"></use></g></g><g><use xlink:href="#a2eIkyih3d" opacity="1" fill="#ff8a4c" fill-opacity="1"></use><g><use xlink:href="#a2eIkyih3d" opacity="1" fill-opacity="0" stroke="#000000" stroke-width="1" stroke-opacity="0"></use></g></g></g></g></svg>