<svg width="16" height="16" viewBox="0 0 16 16" fill="none" xmlns="http://www.w3.org/2000/svg">
<g clip-path="url(#clip0_12_52)">
<path d="M13.4 10.9315V8.02908C13.4 8.00616 13.3971 7.98323 13.3929 7.96184C13.3587 7.80594 13.2119 7.71118 13.068 7.74786L9.21478 8.73827C9.09651 8.76883 8.97254 8.76272 8.85569 8.72298L7.1172 8.11009C7.00035 8.06882 6.87637 8.06424 6.7581 8.09481L2.80945 9.11731C2.6869 9.14788 2.59998 9.26404 2.59998 9.39854V12.301C2.59998 12.3239 2.60282 12.3468 2.6071 12.3682C2.64272 12.5226 2.78808 12.6189 2.932 12.5822L6.75383 11.5933C6.8721 11.5612 6.99749 11.5673 7.11292 11.6086L8.84855 12.2246C8.96398 12.2658 9.08796 12.2719 9.20766 12.2398L13.1862 11.2173C13.3088 11.1868 13.3957 11.0706 13.3957 10.9361L13.3986 10.9315H13.4ZM13.3971 6.60155V3.69911C13.3971 3.67618 13.3943 3.65326 13.39 3.63186C13.3558 3.47596 13.209 3.3812 13.0651 3.41788L9.21621 4.40829C9.09794 4.43886 8.97396 4.43275 8.85711 4.39301L7.11862 3.78012C7.00178 3.73885 6.8778 3.73426 6.75953 3.76483L2.81087 4.78734C2.68832 4.81638 2.60141 4.93253 2.60141 5.06703V7.97406C2.60141 7.99699 2.60425 8.01991 2.60853 8.04131C2.64415 8.19568 2.7895 8.29197 2.93343 8.25529L6.75524 7.26641C6.87352 7.23431 6.99892 7.24043 7.11435 7.28169L8.85284 7.89306C8.96826 7.93432 9.09223 7.94044 9.21193 7.90834L13.1877 6.88737C13.3102 6.8568 13.3971 6.74064 13.3971 6.60614V6.60155Z" fill="black"/>
</g>
<defs>
<clipPath id="clip0_12_52">
<rect width="16" height="16" rx="8" fill="white"/>
</clipPath>
</defs>
</svg>
