/* XPM */
static char *currency_euro___[] = {
/* columns rows colors chars-per-pixel */
"48 48 78 1",
"  c #757325",
". c #797723",
"X c #7C7A25",
"o c #767429",
"O c #79772A",
"+ c #7E7C29",
"@ c #7E7C31",
"# c #7D7B3A",
"$ c #817F26",
"% c #807E2B",
"& c #817F33",
"* c #817F39",
"= c #848225",
"- c #83812D",
"; c #88862E",
": c #8A882E",
"> c #868431",
", c #898733",
"< c #8C8A35",
"1 c #84833C",
"2 c #8E8C38",
"3 c #92903D",
"4 c #848342",
"5 c #8A8945",
"6 c #8D8B4D",
"7 c #918F4E",
"8 c #8D8C54",
"9 c #908F57",
"0 c #949251",
"q c #95945D",
"w c #9A995B",
"e c #959462",
"r c #989663",
"t c #9E9D61",
"y c #9D9C6E",
"u c #9F9E72",
"i c #A09F61",
"p c #A09F6D",
"a c #A3A264",
"s c #A7A668",
"d c #ACAB6D",
"f c #A4A374",
"g c #AFAE72",
"h c #A6A57B",
"j c #ABA978",
"k c #ACAB84",
"l c #AEAD8B",
"z c #B0AF86",
"x c #B6B583",
"c c #BAB987",
"v c #B2B18E",
"b c #AEAE91",
"n c #B5B495",
"m c #BDBC9F",
"M c #BEBDA2",
"N c #C0BF92",
"B c #C5C5AD",
"V c #CACAB4",
"C c #C1C1BE",
"Z c #CCCCBA",
"A c #D0CFB4",
"S c #D1D1B3",
"D c #D5D5BC",
"F c #C5C5C2",
"G c #D0CFC0",
"H c #D4D3C4",
"J c #DADACD",
"K c #D5D5D5",
"L c #DCDCD3",
"P c #DDDDDD",
"I c #E3E3DA",
"U c #E3E3E2",
"Y c #E8E8E6",
"T c #EAEAEA",
"R c #F0F0ED",
"E c #F3F3F3",
"W c #FBFBFB",
"Q c None",
/* pixels */
"QQQQQQQQQQQQQQQQQQQQQQQQQQQQQQQQQQQQQQQQQQQQQQQQ",
"QQQQQQQQQQQQQQQQQQQQQQQQQQQQQQQQQQQQQQQQQQQQQQQQ",
"QQQQQQQQQQUYYTYTTTTTTTYYTTTTTTTTYYYYYPQQQQQQQQQQ",
"QQQQQQQYWYPLKKKKKKKKKLKLKKKKKKKKKKKJPPYWTQQQQQQQ",
"QQQQQQWPCvpwwwwwwwwww0w00ww0wwwwwwwwqsbCUWQQQQQQ",
"QQQQQWKb:=X.$..XXX$XXXX$=X$$X+..XX.XXX=<lKWQQQQQ",
"QQQQWKf=$..............................X$fKWQQQQ",
"QQQYPl=X........X.X.X...X..X...XX..X.X..X$lPYQQQ",
"QQQWF<X...X.XXX X....XX.....XX......X...XX2FWQQQ",
"QQQTn=XXXXXXXXXXXXXXX.XXXXXXX.XXXXXXXXXXXO$nTQQQ",
"QQUUf$XX.XXXXXXXX.XXXXXXXXXXXXXXXX...XXXXX+sUUQQ",
"QQYPw+XXXXXXXXXXXXX.XXXXXX.XX.+XXX. X.XXXXXtPYQQ",
"QQTPw+XXXXXXXXXXXXXXXXXXXXXXXX+XXXon@XXXXX+wPYQQ",
"QQTPw$+X+++X++X+X+++X+$+$X+X+X+XX uY8X$XX+$wPTQQ",
"QQYPw$+X+XXXXX+XX+X++X+X+X$+X+X+O VL XX+X+$wPTQQ",
"QQTPt=++++$$$++$+$X$X+$+++X+++$XX#Tl O++$+-wPTQQ",
"QQTPw$++$+$++$$+X+++++++++XOXX+XoVY4O+%X%%$wPTQQ",
"QQTUi$$$+++$++++$$+$%+$+$XO@OXXoZYeoX%X%%X$tUYQQ",
"QQTPt$+%++$++++$%+%++$+$+XOHG4 uTr +++%+%$$tUYQQ",
"QQYUi%%%%%%%%%%%%%$%%$++OOVUZUhLBo+%$%%%%$=tUTQQ",
"QQTUi%%%%%%$@+%%$%%%++O oMU8 uUT9O$%%%%%%%=tUTQQ",
"QQTUa=%%%%%%-%%%%%-%+OhZYI8OOO4MO+%%%%%%%%-iUYQQ",
"QQYYi=--%--%-%-%%%-%+eRJv5++++O++%-%%-%-%--iYTQQ",
"QQYUi%%%--%-%-%-&-$+OLMoO++OO9r8O%%--%-%%%-iUYQQ",
"QQTUi=>%----------%OzU*@++#nYRREI9$>%----=-iYTQQ",
"QQTTa------------%+4Th+%+@HRERRRR*%%%--%---aYTQQ",
"QQTTi->---------@+OVHO%%OvERRb8kHO%->->->--aYTQQ",
"QQTTa=>>->>>&-&OqveR6%&+hUERKkl4%&->>-->->-aTTQQ",
"QQTTa->->->--@+nRRPk@--@PEEEUPI*&->--;>;>--aTTQQ",
"QQTTa->>>>--@6JEmJD@>--+uEEElee@%>>;>>>>>>-aTTQQ",
"QQTTa;>>>--+kTIq@f5->>-6EEEEEEI%%>;>>>>>;>;aRYQQ",
"QQTTa;>,>-5DEm&@&-->>>>>1LEEG##+10>>>>>>>>;aTTQQ",
"QQTEa;>>>>jIq@->>>,,>,>>&fEEEHnVTx->,,>>,>-aEYQQ",
"QQYRs:,,>>21>>>,,,,,,,,,>%BEWEEWEv>>,,,,,,:sRYQQ",
"QQYEa:,,,,,,,,,,,<,,,,,,,>&hHRETV8>>,,,,,,:aRTQQ",
"QQTEs;,,,,,,,,,,,,,,,,,<,>>>&@1@>>>,,,,,,,;sETQQ",
"QQYEd>,<<,<<,,,2<,<,,<,<,,,,,,,,>,,2,,2,,<;dEYQQ",
"QQUEx;<<,2,,2,2,<<<<<<<<,22,2,,2,,,<,2,<<,;xEUQQ",
"QQQWA:<<22,2,2<2<<<<<<<<2<2<,2,,2<<,2<<,<<;VWQQQ",
"QQQWT3<<222222,22<22<<2<2<2<222222222222<<3EWQQQ",
"QQQYWS=<<22<22<2<<22<22222<222<<<2222<22<=SEYQQQ",
"QQQQWEN;,22<22222<2222222222222<2222222<=NWWQQQQ",
"QQQQQWWS3:::<:<::<<,<:<::<<:<:,<:<<::::3SWWQQQQQ",
"QQQQQQWWEDcgdddddddgdddddddddddgddddgcDEWWQQQQQQ",
"QQQQQQQYWWWWWWWWWWWWWWWWWWWWWWWWWWWWWWWWYQQQQQQQ",
"QQQQQQQQQQUYTTTYTTYTYTYYTYTYTYYTTYTYYUQQQQQQQQQQ",
"QQQQQQQQQQQQQQQQQQQQQQQQQQQQQQQQQQQQQQQQQQQQQQQQ",
"QQQQQQQQQQQQQQQQQQQQQQQQQQQQQQQQQQQQQQQQQQQQQQQQ"
};
