<svg clip-rule="evenodd" fill-rule="evenodd" stroke-linejoin="round" stroke-miterlimit="2" width="16" height="16" viewBox="0 0 24 24" fill="#6B7280" xmlns="http://www.w3.org/2000/svg"><path d="m12.002 2.005c5.518 0 9.998 4.48 9.998 9.997 0 5.518-4.48 9.998-9.998 9.998-5.517 0-9.997-4.48-9.997-9.998 0-5.517 4.48-9.997 9.997-9.997zm2.721 6.991-5.45 5.449c-.146.147-.219.34-.219.531 0 .427.349.75.75.75.192 0 .384-.073.53-.219l5.449-5.449c.147-.147.22-.338.22-.531 0-.425-.346-.75-.75-.75-.192 0-.385.073-.53.219z" fill-rule="nonzero"/></svg>
