<svg clip-rule="evenodd" fill-rule="evenodd" stroke-linejoin="round" stroke-miterlimit="2" width="16" height="16" viewBox="0 0 24 24" fill="#6B7280" xmlns="http://www.w3.org/2000/svg"><path d="m12.002 2.005c5.518 0 9.998 4.48 9.998 9.997 0 5.518-4.48 9.998-9.998 9.998-5.517 0-9.997-4.48-9.997-9.998 0-5.517 4.48-9.997 9.997-9.997zm0 1.5c-4.69 0-8.497 3.807-8.497 8.497s3.807 8.498 8.497 8.498 8.498-3.808 8.498-8.498-3.808-8.497-8.498-8.497zm3.710 4.257c.146-.146.339-.219.531-.219.404 0 .75.325.75.75 0 .193-.073.384-.219.531l-6.951 6.951c-.146.146-.339.219-.531.219-.401 0-.751-.323-.751-.75 0-.192.073-.384.22-.531l6.951-6.951z" fill-rule="nonzero"/></svg>
