<?xml version="1.0" encoding="UTF-8" standalone="no"?>
<!DOCTYPE svg PUBLIC "-//W3C//DTD SVG 1.1//EN" "http://www.w3.org/Graphics/SVG/1.1/DTD/svg11.dtd">
<!-- Created with Vectornator (http://vectornator.io/) -->
<svg height="100%" stroke-miterlimit="10" style="fill-rule:nonzero;clip-rule:evenodd;stroke-linecap:round;stroke-linejoin:round;" version="1.1" viewBox="0 0 2268 2268" width="100%" xml:space="preserve" xmlns="http://www.w3.org/2000/svg" xmlns:xlink="http://www.w3.org/1999/xlink">
<defs/>
<g id="no-entry">
<path d="M1931.92 336.224C1491.3-104.486 776.819-104.519 336.15 336.15C-104.519 776.819-104.486 1491.3 336.224 1931.92C776.876 2372.49 1491.24 2372.46 1931.85 1931.85C2372.46 1491.24 2372.49 776.876 1931.92 336.224M1675.27 1842.65C1320.29 2113.78 819.457 2080.4 503.605 1764.54C187.753 1448.69 154.364 947.86 425.494 592.875L1675.27 1842.65ZM592.875 425.494C947.86 154.364 1448.69 187.753 1764.54 503.605C2080.4 819.457 2113.78 1320.29 1842.65 1675.27L592.875 425.494Z" fill="#ff0000" fill-rule="nonzero" opacity="1" stroke="none"/>
</g>
</svg>
